# xmcd
# 
# Track frame offsets:
#     150
#     25510
#     38635
#     59875
#     82900
#     105385
#     114937
#     169125
#     188836
#     213450
#     231675
# 
# Disc length: 3348
# 
# Revision: 1
# Processed by: cddbd v1.5.2PL0 Copyright (c) Steve Scherf et al.
# Submitted via: fre:ac v1.0.31
# 
DISCID=8d0d120b
DTITLE=The Young Gods - Knock On Wood
DYEAR=2008
DGENRE=Alternative
TTITLE0=Our House
TTITLE1=I'm the drug
TTITLE2=Everythere
TTITLE3=Gasoline man
TTITLE4=Speak low
TTITLE5=Charlotte
TTITLE6=Ghost rider
TTITLE7=Longue road
TTITLE8=She Rains
TTITLE9=Freedom
TTITLE10=Skinflowers
EXTD=Muve Recordings ‎– MUVE 905762LTD\nCD and DVD, Limited Edition, Digipak
EXTT0=
EXTT1=
EXTT2=
EXTT3=
EXTT4=
EXTT5=
EXTT6=
EXTT7=
EXTT8=
EXTT9=
EXTT10=
PLAYORDER=
